<?xml version="1.0" encoding="utf-8"?>
<!-- Generator: Adobe Illustrator 22.0.1, SVG Export Plug-In . SVG Version: 6.00 Build 0)  -->
<svg version="1.1" id="Layer_1" xmlns="http://www.w3.org/2000/svg" xmlns:xlink="http://www.w3.org/1999/xlink" x="0px" y="0px"
	 viewBox="0 0 303.7 69.3" style="enable-background:new 0 0 303.7 69.3;" xml:space="preserve">
<style type="text/css">
	.st0{fill-rule:evenodd;clip-rule:evenodd;fill:#1D252C;}
	.st1{fill-rule:evenodd;clip-rule:evenodd;fill:#CF3339;}
	.st2{fill-rule:evenodd;clip-rule:evenodd;fill:#1F1F1F;}
</style>
<path class="st0" d="M4.2,50.5c0,9.5,4.7,14.2,14.1,14.2c9.4,0,14.2-4.7,14.2-14.2c0-3.2,1.2-10.4,4.2-13.5c3-3,10.2-4.4,13.5-4.4
	c9.4,0,14.1-4.8,14.1-14.3c0-9.5-4.7-14.2-14.1-14.2c-9.4,0-14.2,4.7-14.2,14.2c0,3.2-1.3,10.5-4.2,13.5c-2.9,3-10.2,4.4-13.5,4.4
	C8.9,36.3,4.2,41.1,4.2,50.5z"/>
<path class="st1" d="M36.1,50.5c0,9.5,4.7,14.2,14.1,14.2c9.4,0,14.2-4.7,14.2-14.2c0-9.5-4.8-14.3-14.2-14.3
	C40.8,36.3,36.1,41.1,36.1,50.5z"/>
<path class="st1" d="M4.2,18.5c0,9.5,4.7,14.2,14.1,14.2c9.4,0,14.2-4.7,14.2-14.2c0-9.5-4.8-14.3-14.2-14.3C8.9,4.2,4.2,9,4.2,18.5
	z"/>
<path class="st0" d="M103.3,16.6c0-1.1-0.4-1.7-1.7-1.7H73.9c-1.4,0-1.7,0.7-1.7,1.7v5c0,1.1,0.4,1.7,1.7,1.7h9.2v29.3
	c0,1.4,0.7,1.7,1.7,1.7h5.9c1.1,0,1.7-0.4,1.7-1.7V23.4h9.1c1.4,0,1.7-0.7,1.7-1.7V16.6z"/>
<path class="st0" d="M135,47.7c0-1.1-0.4-1.7-1.7-1.7h-18v-7.9h16c1.4,0,1.7-0.7,1.7-1.7v-4.7c0-1.1-0.4-1.7-1.7-1.7h-16v-6.5h18
	c1.4,0,1.7-0.7,1.7-1.7v-5c0-1.1-0.4-1.7-1.7-1.7h-25.7c-1.4,0-1.7,0.7-1.7,1.7v36c0,1.1,0.4,1.7,1.7,1.7h25.7
	c1.4,0,1.7-0.7,1.7-1.7V47.7z"/>
<path class="st0" d="M165.8,47.7c0-1.1-0.4-1.7-1.7-1.7h-17.2V16.6c0-1.4-0.7-1.7-1.7-1.7h-5.9c-1.1,0-1.7,0.4-1.7,1.7v36
	c0,1.1,0.4,1.7,1.7,1.7h24.8c1.4,0,1.7-0.7,1.7-1.7V47.7z"/>
<path class="st0" d="M197.5,47.7c0-1.1-0.4-1.7-1.7-1.7h-18v-7.9h16c1.4,0,1.7-0.7,1.7-1.7v-4.7c0-1.1-0.4-1.7-1.7-1.7h-16v-6.5h18
	c1.4,0,1.7-0.7,1.7-1.7v-5c0-1.1-0.4-1.7-1.7-1.7H170c-1.4,0-1.7,0.7-1.7,1.7v36c0,1.1,0.4,1.7,1.7,1.7h25.7c1.4,0,1.7-0.7,1.7-1.7
	V47.7z"/>
<path class="st0" d="M222.8,29c0,3-2,5.6-6.7,5.6h-5.7V23.4h5.7C220.8,23.4,222.8,25.9,222.8,29z M231.8,28.8
	c0-8.3-5.4-13.9-15.6-13.9h-13.4c-1.4,0-1.7,0.7-1.7,1.7v36c0,1.4,0.7,1.7,1.7,1.7h5.9c1.1,0,1.7-0.4,1.7-1.7v-10h5.7
	C226.3,42.7,231.8,37.2,231.8,28.8z"/>
<path class="st0" d="M249.8,39.5h-8.9l4.5-13.3L249.8,39.5z M262.8,54.4c1.3,0,1.3-1,1-1.7l-13.2-36c-0.5-1.3-1.1-1.9-2.4-1.9h-5.7
	c-1.3,0-2,0.6-2.4,1.9l-13.2,36c-0.3,0.7-0.3,1.7,1,1.7h6.3c1.3,0,1.8-0.4,2.3-1.8l1.7-4.7h14.6l1.7,4.7c0.5,1.4,1,1.8,2.3,1.8
	H262.8z"/>
<path class="st0" d="M286.8,16.6c0-1.1-0.4-1.7-1.7-1.7h-27.7c-1.4,0-1.7,0.7-1.7,1.7v5c0,1.1,0.4,1.7,1.7,1.7h9.2v29.3
	c0,1.4,0.7,1.7,1.7,1.7h5.9c1.1,0,1.7-0.4,1.7-1.7V23.4h9.1c1.4,0,1.7-0.7,1.7-1.7V16.6z"/>
<path class="st2" d="M290.9,4.2c-2.1,2.1-2.1,4.3,0,6.4c2.1,2.1,4.3,2.1,6.4,0c2.1-2.1,2.1-4.3,0-6.4C295.2,2.1,293,2.1,290.9,4.2z"
	/>
<path class="st2" d="M289.3,17v35.3c0,1.3,0.4,2.1,2,2.1h5.5c1.6,0,2-0.8,2-2.1V17c0-1.3-0.4-2.1-2-2.1h-5.5
	C289.7,14.9,289.3,15.9,289.3,17z"/>
</svg>
